<?xml version="1.0" encoding="UTF-8"?>
<svg version="1.1" xmlns="http://www.w3.org/2000/svg" width="1461" height="556">
<path d="M0 0 C1.10546425 -0.0098568 1.10546425 -0.0098568 2.23326111 -0.01991272 C4.68260809 -0.03968244 7.13189319 -0.05132563 9.58129883 -0.0612793 C10.42128229 -0.06535482 11.26126575 -0.06943035 12.12670326 -0.07362938 C16.58544291 -0.0945205 21.04415164 -0.10880062 25.50292969 -0.11816406 C30.07306804 -0.12914537 34.64270821 -0.16343874 39.21267223 -0.20333576 C42.7535735 -0.22972306 46.29436105 -0.23787601 49.83535194 -0.24144554 C51.51717753 -0.24626647 53.19899962 -0.25774919 54.88072777 -0.27648354 C77.28083394 -0.51020539 96.04881299 5.89830873 112.35424805 21.65258789 C124.96651639 34.49940739 132.12429894 51.87163423 132.31958008 69.765625 C132.30926758 70.85012939 132.29895508 71.93463379 132.28833008 73.05200195 C132.27930664 74.19386963 132.2702832 75.3357373 132.26098633 76.51220703 C132.08596364 85.04152426 131.29810981 92.28351483 127.85083008 100.17700195 C127.59301758 100.77480469 127.33520508 101.37260742 127.06958008 101.98852539 C118.75725572 120.70087594 103.68401135 134.27842003 84.85083008 142.17700195 C78.3088255 144.44324441 71.75948875 145.79828811 64.85083008 146.17700195 C63.53211914 146.2562793 63.53211914 146.2562793 62.18676758 146.3371582 C41.33543051 146.98349345 23.65876507 139.45403626 7.85083008 126.17700195 C7.84940506 126.8401944 7.84798004 127.50338684 7.84651184 128.18667603 C7.82680473 135.09777022 7.77250846 142.00798241 7.69824219 148.91870117 C7.6750646 151.49676177 7.66066708 154.07491703 7.65527344 156.65307617 C7.64598283 160.36217218 7.60498495 164.06977977 7.55786133 167.77856445 C7.56179398 168.92878082 7.56572662 170.07899719 7.56977844 171.2640686 C7.40725554 180.2052861 7.40725554 180.2052861 4.46289062 183.90429688 C1.63481608 186.3649517 0.54218129 186.97408894 -3.14916992 186.86450195 C-3.97416992 186.86836914 -4.79916992 186.87223633 -5.64916992 186.8762207 C-8.36507231 186.11661675 -10.13116118 185.14162937 -12.0818615 183.08938789 C-14.61340679 178.55340607 -13.82581991 172.77096889 -13.78027344 167.72949219 C-13.7854142 166.34609052 -13.79269667 164.96269541 -13.80195618 163.57931519 C-13.8204574 159.82921515 -13.80754112 156.07982683 -13.78786588 152.3297565 C-13.77147041 148.40383509 -13.78029336 144.47795844 -13.78538513 140.55201721 C-13.78990458 133.96050658 -13.7740444 127.36927988 -13.74609375 120.77783203 C-13.71402902 113.1574294 -13.71406307 105.53753844 -13.73130852 97.91709942 C-13.74717116 90.58449477 -13.74044267 83.25207771 -13.72337151 75.91948128 C-13.71649936 72.79951039 -13.71753502 69.67968978 -13.72491646 66.55972099 C-13.73257689 62.88644314 -13.7204621 59.21374781 -13.69306755 55.54056931 C-13.68289485 53.54946458 -13.69236825 51.55828993 -13.70239258 49.56718445 C-13.68330589 47.79018158 -13.68330589 47.79018158 -13.66383362 45.97727966 C-13.6610267 44.94767844 -13.65821978 43.91807722 -13.6553278 42.85727596 C-13.01519947 39.46758393 -11.83099663 38.28165255 -9.14916992 36.17700195 C-6.52807617 35.6105957 -6.52807617 35.6105957 -3.71166992 35.61450195 C-2.78483398 35.59258789 -1.85799805 35.57067383 -0.90307617 35.5480957 C3.01346564 36.44251164 4.36704605 38.04336836 6.85083008 41.17700195 C7.32317043 44.16126562 7.50408918 46.58148065 7.45239258 49.5559082 C7.46440201 50.76778053 7.46440201 50.76778053 7.47665405 52.00413513 C7.4996671 54.58310267 7.4903094 57.16049336 7.47583008 59.73950195 C7.44843752 77.77236447 8.98182398 92.59027138 20.16333008 107.55200195 C30.80074885 117.94203889 44.21484366 124.08165592 59.03833008 124.55200195 C70.87376992 124.36395127 84.43292423 120.60638885 93.03442383 111.98950195 C94.85083008 110.17700195 94.85083008 110.17700195 96.85083008 110.17700195 C97.25688477 109.31655273 97.25688477 109.31655273 97.67114258 108.4387207 C98.87007726 106.1401009 100.23554809 104.10909992 101.72583008 101.98950195 C109.41324473 90.51462935 112.5599798 77.99204179 110.38598633 64.2355957 C107.18788624 49.72114148 99.92669779 37.70966938 87.53833008 29.30200195 C77.55686703 23.36632126 67.16294277 21.04294534 55.61791992 21.06689453 C54.19892373 21.06635251 52.77992755 21.06576557 51.3609314 21.06513977 C50.61965374 21.06656794 49.87837608 21.0679961 49.11463547 21.06946754 C45.15684134 21.07301766 41.19918411 21.04717224 37.24145508 21.02661133 C32.22017381 21.00225869 27.19931081 20.98663566 22.17797852 21.00195312 C18.10411365 21.01361277 14.03127378 20.99623696 9.95756912 20.9595089 C8.40987985 20.95090206 6.86209222 20.95296093 5.31443405 20.96601295 C3.15012962 20.98291508 0.98906604 20.96271554 -1.17504883 20.93408203 C-2.40413971 20.93265701 -3.63323059 20.93123199 -4.89956665 20.92976379 C-9.4788935 19.86897507 -10.53427797 18.01549642 -13.14916992 14.17700195 C-14.04034549 11.11600761 -13.61936014 9.46833346 -13.14916992 6.17700195 C-9.41972683 0.33420778 -6.53264575 0.02514403 0 0 Z " fill="#000000" transform="translate(471.149169921875,177.822998046875)"/>
<path d="M0 0 C11.47026408 9.59474758 19.5370684 23.30289123 21.62109375 38.14453125 C21.89411748 41.94530891 21.29574505 44.15475616 19.51953125 47.5234375 C14.404922 52.78319248 4.38019275 51.16112689 -2.4309082 51.27880859 C-5.38097617 51.31675252 -8.3310047 51.34028289 -11.28125 51.359375 C-12.05801779 51.36469868 -12.83478558 51.37002235 -13.63509178 51.37550735 C-17.7333616 51.40201485 -21.83160308 51.42147402 -25.92993164 51.43603516 C-29.30617937 51.44944562 -32.6818329 51.47745888 -36.05786133 51.51806641 C-40.161969 51.56739373 -44.26553317 51.59215187 -48.36992455 51.59926224 C-49.92524379 51.60595859 -51.48055159 51.62113864 -53.03569984 51.64515305 C-55.20844697 51.67683987 -57.37908368 51.67684005 -59.55200195 51.66943359 C-60.7845723 51.67752045 -62.01714264 51.6856073 -63.2870636 51.69393921 C-67.80460796 50.88153112 -69.43842089 49.30261112 -72.66796875 46.0859375 C-73.93473478 43.07605955 -74.02625495 40.32188748 -73.66796875 37.0859375 C-70.87278803 31.68834714 -70.87278803 31.68834714 -67.66796875 30.0859375 C-65.66699357 29.96566278 -63.66210665 29.90856492 -61.65771484 29.88061523 C-60.39655853 29.86067001 -59.13540222 29.84072479 -57.83602905 29.82017517 C-56.45448938 29.80319085 -55.07294841 29.78631204 -53.69140625 29.76953125 C-52.28178293 29.7489619 -50.87216578 29.72796543 -49.46255493 29.70655823 C-45.7504984 29.65133555 -42.03838618 29.60192719 -38.32623291 29.55371094 C-34.53905272 29.50349732 -30.75195349 29.44781053 -26.96484375 29.39257812 C-19.53262063 29.28499417 -12.10033023 29.18354977 -4.66796875 29.0859375 C-5.59670401 27.81640105 -6.52987337 26.55010778 -7.46484375 25.28515625 C-7.98401367 24.57963623 -8.50318359 23.87411621 -9.03808594 23.1472168 C-14.50868969 16.22865666 -22.889327 10.63325205 -31.66796875 9.0859375 C-45.0470717 8.17609884 -55.40234578 9.89762185 -66.4453125 18.10546875 C-73.70832267 24.57707887 -79.0821628 35.17150659 -79.90625 44.8984375 C-80.20921087 57.90980965 -76.70506629 68.50570889 -67.66796875 78.0859375 C-58.31946287 85.52936212 -48.64361315 89.30880929 -36.66796875 89.0859375 C-26.22511979 87.7244015 -16.50795561 83.2559218 -9.66796875 75.0859375 C-8.65250833 73.61734152 -7.65377354 72.13710232 -6.66796875 70.6484375 C-5.90226562 69.49214844 -5.90226562 69.49214844 -5.12109375 68.3125 C-4.23098044 66.94861669 -3.36107122 65.57093822 -2.52734375 64.171875 C-0.81315334 61.62473291 0.66958609 60.22741999 3.69140625 59.58203125 C8.05203495 59.38206159 10.62691776 59.65423536 14.39453125 61.9609375 C17.25567263 65.09896353 17.81515448 67.41336296 17.72265625 71.69140625 C15.93333457 82.65994815 6.04610412 92.56264103 -2.3671875 99.22265625 C-18.16212607 109.85253461 -35.50209322 111.98602995 -54.06640625 109.66015625 C-56.74185856 109.00535336 -59.13394278 108.1653165 -61.66796875 107.0859375 C-62.77011719 106.63347656 -63.87226562 106.18101562 -65.0078125 105.71484375 C-81.47921921 98.25710586 -92.04682472 85.98278119 -98.66796875 69.125 C-103.91497104 53.17903211 -102.67804034 35.89162441 -95.48046875 20.7734375 C-87.18966457 5.38861887 -75.27771606 -5.24836646 -58.6484375 -10.94921875 C-37.9085844 -16.55810984 -17.3116333 -12.4197662 0 0 Z " fill="#000000" transform="translate(1092.66796875,253.9140625)"/>
<path d="M0 0 C10.90662727 9.99457481 18.95881993 22.84259924 19.7421875 37.8671875 C19.60294018 41.51340448 19.30577192 42.94505919 17.4296875 46.1796875 C8.9484048 51.16867733 -3.55709153 49.23364009 -13.1875 49.2578125 C-13.95448338 49.26063988 -14.72146675 49.26346725 -15.51169205 49.26638031 C-19.55695171 49.28124993 -23.60217672 49.29056101 -27.64746094 49.29492188 C-31.8135607 49.30044273 -35.97933962 49.32458059 -40.14533806 49.35289383 C-43.36584419 49.37151667 -46.58627211 49.37672523 -49.80682755 49.37825775 C-51.34339307 49.3812768 -52.87995746 49.38928003 -54.41646957 49.40244293 C-56.56028833 49.41952492 -58.70330852 49.41762049 -60.84716797 49.41113281 C-62.06419403 49.41477844 -63.28122009 49.41842407 -64.53512573 49.42218018 C-68.08817342 49.01701545 -69.92703455 48.20411391 -72.7578125 46.0546875 C-74.85844005 42.90374617 -75.10094536 41.8322509 -75.1953125 38.1796875 C-75.23527344 37.33664062 -75.27523438 36.49359375 -75.31640625 35.625 C-74.50308143 31.88256831 -72.66855362 30.47578661 -69.7578125 28.0546875 C-66.76481628 27.41545105 -66.76481628 27.41545105 -63.40698242 27.39526367 C-62.1460527 27.37562057 -60.88512299 27.35597748 -59.58598328 27.33573914 C-58.22008116 27.33918206 -56.85418032 27.34316704 -55.48828125 27.34765625 C-54.08293013 27.33453384 -52.67759784 27.31922793 -51.27229309 27.30183411 C-47.58478824 27.26203324 -43.8977773 27.25179699 -40.21008301 27.24780273 C-36.44263778 27.23846179 -32.67548162 27.20104241 -28.90820312 27.16601562 C-21.52473704 27.10149019 -14.14156688 27.06820902 -6.7578125 27.0546875 C-12.66352148 18.04136227 -20.4644607 10.62351806 -31.05078125 7.52734375 C-42.33063383 5.55784568 -53.42400841 6.35174012 -63.21875 12.6328125 C-73.36980192 20.11963485 -79.72082798 29.37549815 -81.7578125 42.0546875 C-82.97212427 52.24694365 -79.53370858 62.80097587 -73.50390625 70.99609375 C-65.76226139 80.12326789 -56.76207708 85.56396183 -44.7578125 87.0546875 C-33.16001699 87.57014508 -23.90490144 83.27327795 -14.5703125 76.8671875 C-11.36827843 73.66515343 -9.36958961 70.34886929 -7.140625 66.43359375 C-3.29947917 59.82552083 -3.29947917 59.82552083 0.2421875 58.0546875 C5.20559986 57.43975146 9.01560785 57.31873971 13.3671875 59.9296875 C16.06962827 64.43375545 16.2736471 67.93476122 15.2421875 73.0546875 C9.15917473 87.80485003 -4.30530295 98.31962944 -18.3515625 104.79296875 C-33.32729077 110.34017085 -52.03533105 110.33257582 -66.7578125 104.0546875 C-83.57251704 95.94503146 -94.60791825 83.3599493 -100.8828125 65.9296875 C-105.47923047 50.82717131 -104.19034557 32.5307072 -97.47265625 18.33984375 C-93.8491375 11.78924857 -88.97424126 6.37904237 -83.7578125 1.0546875 C-83.15453125 0.4153125 -82.55125 -0.2240625 -81.9296875 -0.8828125 C-59.87735236 -22.35986933 -22.14527027 -18.74919048 0 0 Z " fill="#000000" transform="translate(340.7578125,253.9453125)"/>
<path d="M0 0 C1.35696506 0.96768983 2.70229319 1.95418223 4 3 C4.226875 1.783125 4.45375 0.56625 4.6875 -0.6875 C5.81303211 -5.02773685 7.19324404 -7.40816616 11 -10 C15.67117233 -10.95797182 18.94121112 -10.66174305 23 -8.125 C25.81293575 -5.13625576 26.12610781 -3.57254649 26.14717102 0.42085266 C26.15432632 1.35034729 26.16148163 2.27984192 26.16885376 3.23750305 C26.17154266 4.26038925 26.17423157 5.28327545 26.17700195 6.3371582 C26.18357315 7.41206512 26.19014435 8.48697205 26.19691467 9.5944519 C26.21667846 13.163229 26.22831662 16.73196397 26.23828125 20.30078125 C26.24235678 21.51732077 26.2464323 22.73386028 26.25063133 23.98726463 C26.27150435 30.42502041 26.28580124 36.86275479 26.29516602 43.30053711 C26.30523046 49.95890624 26.34064426 56.61689563 26.38033772 63.27515888 C26.40644855 68.38720839 26.41485291 73.49917774 26.41844749 78.61128807 C26.42332708 81.06612592 26.43497977 83.52095986 26.45348549 85.9757328 C26.4777604 89.40897892 26.4769329 92.84135305 26.4699707 96.2746582 C26.48278076 97.29147171 26.49559082 98.30828522 26.50878906 99.35591125 C26.47614819 103.76496227 26.43866441 106.28412345 24.09562683 110.10783386 C20.5502437 113.30900203 17.89169363 113.33379656 13.26171875 113.2890625 C9.91365699 112.86115823 8.23933019 111.44926739 6 109 C4.93419778 105.80259333 4.86916936 103.50327115 4.8581543 100.14257812 C4.84760262 98.334245 4.84760262 98.334245 4.83683777 96.48937988 C4.83267349 95.18319702 4.82850922 93.87701416 4.82421875 92.53125 C4.81378612 91.17182647 4.80236215 89.81241022 4.78999329 88.45300293 C4.73770129 82.68680276 4.68966424 76.92072853 4.67407227 71.15429688 C4.66390076 67.62329409 4.63434136 64.09288504 4.59275246 60.56211853 C4.57468391 58.58222103 4.57707264 56.60217016 4.58000183 54.62219238 C4.41457953 42.27618343 1.1200248 32.40996764 -7 23 C-14.77537528 15.75440981 -24.36947729 11.17654166 -35.0390625 10.9296875 C-46.93825148 11.41247082 -56.24720685 15.23675384 -64.80859375 23.55078125 C-72.17801955 31.78719833 -76.80972092 42.34459676 -76.34765625 53.5546875 C-74.56181464 66.11577569 -69.22822234 76.07920537 -59.54296875 84.20703125 C-50.73978758 90.41388249 -40.53606122 93.15290489 -29.859375 91.51953125 C-25.15561897 90.44995859 -20.93569309 89.10439608 -16.6875 86.8125 C-12.96546463 84.82433204 -10.26287609 84.28952065 -6 85 C-3.03650682 86.80879877 -0.57804294 88.84391412 1 92 C1.34675203 96.23037473 1.55219342 98.86931824 -0.3125 102.6875 C-4.42374062 106.22507914 -8.96934497 108.06359707 -14 110 C-14.78890625 110.32355469 -15.5778125 110.64710938 -16.390625 110.98046875 C-31.40999595 116.14034941 -50.10193473 114.25608764 -64.19921875 107.45703125 C-80.30706422 98.62500055 -90.67414442 85.49923975 -96 68 C-99.91865482 50.8277492 -97.56717649 31.96752863 -88.2421875 17.01953125 C-66.37724121 -12.42577099 -31.29463313 -17.54094086 0 0 Z " fill="#000000" transform="translate(1228,251)"/>
<path d="M0 0 C3.24163051 2.5284718 4.64689479 3.92903817 5.33128357 7.94297791 C5.48662106 14.60394383 3.50852894 19.62374748 0.78515625 25.62890625 C0.34337036 26.63866516 -0.09841553 27.64842407 -0.55358887 28.68878174 C-2.00012557 31.986747 -3.4689331 35.27429364 -4.9375 38.5625 C-5.95570305 40.87573472 -6.97204015 43.18979161 -7.98657227 45.50463867 C-10.03069429 50.1665378 -12.08133425 54.82547816 -14.13671875 59.48242188 C-17.64619276 67.45064434 -21.0620522 75.45708815 -24.45068359 83.47729492 C-25.78404596 86.63256731 -27.12207633 89.78585203 -28.45996094 92.93920898 C-29.15742735 94.58316678 -29.85469063 96.22721077 -30.55175781 97.87133789 C-35.16587976 108.75383761 -39.79398967 119.63038723 -44.42385864 130.50619507 C-45.88609469 133.94172308 -47.34724355 137.377712 -48.80834961 140.8137207 C-50.63582664 145.1102403 -52.46961396 149.40398376 -54.30810547 153.69580078 C-56.15073833 157.99823751 -57.96878574 162.310126 -59.77392578 166.62841797 C-60.66281978 168.73025581 -61.5519695 170.83198553 -62.44140625 172.93359375 C-62.84221909 173.90555191 -63.24303192 174.87751007 -63.6559906 175.87892151 C-64.22761681 177.21974037 -64.22761681 177.21974037 -64.81079102 178.58764648 C-65.13837906 179.37042465 -65.4659671 180.15320282 -65.80348206 180.95970154 C-67.21515233 183.36687704 -68.6439684 184.53052696 -71 186 C-74.42749885 186.71893878 -77.56398121 186.66611027 -81 186 C-84.23385627 183.47759211 -85.63359171 182.07568741 -86.33924866 178.07817078 C-86.52086988 171.21284878 -84.33817819 165.96298331 -81.55859375 159.76953125 C-81.08873047 158.68684464 -80.61886719 157.60415802 -80.13476562 156.48866272 C-78.85189852 153.539644 -77.55502024 150.597285 -76.25214767 147.65706635 C-74.87236523 144.53289335 -73.51203425 141.40028312 -72.15063477 138.26806641 C-70.45757201 134.37550979 -68.76312668 130.48359039 -67.06089783 126.59503174 C-61.90852876 114.82417609 -56.86160111 103.00970131 -51.84173584 91.18173218 C-50.43752029 87.87504778 -49.03010021 84.56974631 -47.62158203 81.26489258 C-43.13396242 70.73401947 -38.65792126 60.19839812 -34.20487976 49.65286255 C-32.34669422 45.25273969 -30.48446817 40.8543303 -28.62128925 36.45631981 C-27.34881212 33.45178604 -26.07943694 30.44599756 -24.81417847 27.43841553 C-23.41940501 24.12324329 -22.01714829 20.81132951 -20.61328125 17.5 C-20.20391327 16.52136993 -19.79454529 15.54273987 -19.37277222 14.53445435 C-15.08221263 4.45814524 -12.11919146 -1.94059267 0 0 Z " fill="#000000" transform="translate(235,176)"/>
<path d="M0 0 C2.87029869 1.79393668 4.49131638 2.98263276 6 6 C6.09531594 8.21367889 6.12514773 10.43026627 6.12597656 12.64599609 C6.1278447 13.32926971 6.12971283 14.01254333 6.13163757 14.71652222 C6.13564619 16.20393877 6.13771683 17.69136151 6.13809967 19.17878342 C6.14152072 22.35507275 6.16290278 25.53115845 6.18333054 28.70737648 C6.22126293 34.61923318 6.25263041 40.53087881 6.25048828 46.44287109 C6.24969505 50.55630632 6.27333139 54.66900357 6.3123703 58.78224564 C6.32274811 60.34088435 6.32441571 61.89960914 6.31671906 63.4582634 C6.26989706 74.00268017 6.85809021 84.20535778 14.21002197 92.49057007 C20.39273171 98.40755454 26.79447216 101.39456929 35.31640625 102.08203125 C39.24489577 101.96194642 42.71811091 100.85919596 46.45703125 99.71484375 C51.00225226 98.4371549 54.49382762 98.33059005 58.8125 100.25 C62.32402485 103.05921988 62.86171307 104.93321511 63.4375 109.375 C62.90461466 113.79033568 61.36057443 116.22900003 58 119 C47.38635228 124.49635328 31.94474344 125.04042295 20.4375 121.875 C18.93711863 121.30279832 17.45671045 120.67568756 16 120 C15.11441406 119.60941406 14.22882812 119.21882813 13.31640625 118.81640625 C1.69749036 113.12781081 -7.37241019 103.52599372 -11.9921875 91.39453125 C-14.23699189 84.32874221 -15.11867328 77.37978036 -15.16113281 69.96655273 C-15.16609772 69.30217194 -15.17106262 68.63779114 -15.17617798 67.95327759 C-15.19065044 65.78003873 -15.19757371 63.60687265 -15.203125 61.43359375 C-15.20595238 60.68625536 -15.20877975 59.93891697 -15.21169281 59.16893196 C-15.22661894 55.21979552 -15.23589192 51.27069503 -15.24023438 47.3215332 C-15.24573261 43.25406038 -15.26980757 39.18691999 -15.29820633 35.11955166 C-15.31686007 31.97877542 -15.32203959 28.83807922 -15.32357025 25.69725227 C-15.32658733 24.19779694 -15.33458386 22.6983427 -15.34775543 21.19894218 C-15.36488634 19.10038887 -15.36292 17.00264835 -15.35644531 14.90405273 C-15.36191376 13.11704201 -15.36191376 13.11704201 -15.36749268 11.29393005 C-14.95132673 7.56372918 -13.96740834 5.1822828 -12 2 C-7.98141405 -0.6790573 -4.72358279 -0.69610694 0 0 Z " fill="#000000" transform="translate(808,241)"/>
<path d="M0 0 C0.75925781 -0.03738281 1.51851562 -0.07476562 2.30078125 -0.11328125 C5.84563002 0.51910585 7.10853081 1.73707757 9.6875 4.3125 C11.64847237 7.84603369 13.1497899 11.5485442 14.6796875 15.28515625 C15.14242569 16.3831102 15.60516388 17.48106415 16.08192444 18.61228943 C17.5884126 22.19457934 19.07536734 25.78463729 20.5625 29.375 C21.60052112 31.85676346 22.64296515 34.33665851 23.68579102 36.81640625 C25.75364766 41.73715482 27.8144384 46.66078059 29.87060547 51.58642578 C33.1105723 59.33751209 36.4171735 67.05879068 39.74612427 74.77197266 C41.20352107 78.15567973 42.64742745 81.54514243 44.09375 84.93359375 C46.37145449 90.26877419 48.67974195 95.58976566 51.00682068 100.90359497 C52.52440368 104.3780258 54.02700014 107.85882381 55.52713013 111.34082031 C56.24835967 113.00561257 56.97593791 114.66767152 57.7104187 116.32666016 C65.42140955 133.75767846 65.42140955 133.75767846 63.6875 141.3125 C61.8125 144.4375 61.8125 144.4375 58.6875 146.3125 C55.21264651 146.99607774 52.12239266 147.22489336 48.6875 146.3125 C43.46514479 142.13040513 41.47807712 136.99848683 38.9765625 130.91015625 C38.53533554 129.86470642 38.09410858 128.81925659 37.63951111 127.74212646 C36.18588514 124.29103948 34.74933847 120.83310593 33.3125 117.375 C32.29937461 114.96194637 31.28495066 112.54943758 30.26928711 110.13745117 C28.68641249 106.37720966 27.10488367 102.61642481 25.52934265 98.85310364 C20.31999262 86.41020763 15.03012561 74.00239811 9.73236084 61.59689331 C8.28809685 58.21422807 6.84505972 54.83104367 5.40283203 51.44750977 C4.94948486 50.38406845 4.4961377 49.32062714 4.02905273 48.22496033 C3.14939021 46.15810861 2.27156963 44.0904718 1.39575195 42.02198792 C-0.6153155 37.27411764 -2.6476819 32.5393663 -4.74658203 27.82958984 C-5.31216576 26.54129524 -5.31216576 26.54129524 -5.88917542 25.22697449 C-6.58296687 23.64838324 -7.28767195 22.0745162 -8.00621033 20.5070343 C-10.17272606 15.5338449 -10.79683812 11.74470578 -10.3125 6.3125 C-7.39129464 1.73594493 -5.34229732 0.17059437 0 0 Z " fill="#000000" transform="translate(88.3125,175.6875)"/>
<path d="M0 0 C1.58497419 1.22137753 3.14878892 2.47083055 4.6875 3.75 C5.38488281 4.30042969 6.08226562 4.85085937 6.80078125 5.41796875 C13.87929172 11.64430903 19.96822722 22.42743024 21.6875 31.75 C21.80636896 34.30049416 21.87547671 36.82543072 21.89624023 39.37670898 C21.90602402 40.1397937 21.9158078 40.90287842 21.92588806 41.68908691 C21.95574363 44.20807162 21.97719504 46.72700387 21.99609375 49.24609375 C22.00266558 50.10775713 22.0092374 50.96942051 22.01600838 51.8571949 C22.04855221 56.41462692 22.07302014 60.97203597 22.0925293 65.52954102 C22.11036936 69.30006779 22.14523892 73.06985048 22.19506836 76.84008789 C22.25521126 81.39649297 22.28599539 85.95220623 22.29570198 90.50898933 C22.30426389 92.24378583 22.32310033 93.97856345 22.3524456 95.71313286 C22.39132073 98.140877 22.39240205 100.56591552 22.38452148 102.99389648 C22.4145224 104.06556816 22.4145224 104.06556816 22.44512939 105.15888977 C22.40433839 107.96077651 22.21042706 110.12258112 20.38092232 112.31765938 C17.61912834 114.69295866 15.33775591 116.44210339 11.625 116.3125 C7.32633954 115.69840565 5.67453004 114.8275461 2.6875 111.75 C1.24942151 108.87384302 1.55479398 106.39425654 1.5456543 103.17993164 C1.54217987 102.5048053 1.53870544 101.82967896 1.53512573 101.13409424 C1.52776511 99.66468698 1.52242136 98.19526857 1.51883507 96.72584724 C1.51166059 94.39123216 1.49598243 92.05682619 1.47749329 89.72227478 C1.42510157 83.08302861 1.37715097 76.44389133 1.36157227 69.80444336 C1.35141807 65.74295242 1.32189823 61.68198002 1.28025246 57.62069511 C1.26803239 56.08077377 1.26280456 54.54077882 1.26505089 53.00081062 C1.27800175 41.21332019 0.32220964 30.37920978 -8.2734375 21.47265625 C-15.05950096 15.73960264 -22.49173443 13.56030612 -31.3125 13.75 C-32.98422713 14.05694838 -34.65161955 14.38893903 -36.3125 14.75 C-40.70567908 15.25754531 -43.43994348 15.30695097 -47.25 12.875 C-50.63128104 9.3912559 -50.7203988 6.71117251 -50.65234375 2.0078125 C-50.3125 -0.25 -50.3125 -0.25 -48.25 -3.1875 C-35.18346165 -12.36187799 -12.36424148 -8.17424134 0 0 Z " fill="#000000" transform="translate(1349.3125,248.25)"/>
<path d="M0 0 C2.125 0.46875 2.125 0.46875 5.1875 2.34375 C7.94806883 6.79628037 7.84619834 10.35962916 7.125 15.46875 C6.31237218 18.54895006 5.24518785 21.48952701 4.125 24.46875 C1.45400488 34.42427728 3.85078893 43.9601359 8.41015625 53.0234375 C14.5268245 62.87144376 23.00559689 69.24997542 34.125 72.46875 C37.75239598 73.02739959 41.33578703 73.45224303 44.99609375 73.71875 C49.04252702 74.68868157 50.59808044 76.20461904 53.125 79.46875 C53.7890625 81.96875 53.7890625 81.96875 53.75 84.46875 C53.76933594 85.70625 53.76933594 85.70625 53.7890625 86.96875 C52.80377568 90.6780651 51.15769269 92.16487531 48.125 94.46875 C34.46898151 96.92530752 20.48264821 92.66819362 8.94140625 85.4453125 C-5.28089603 75.46405737 -14.81683782 61.77027917 -17.875 44.46875 C-19.09147172 31.45713802 -19.11351556 17.27840504 -12.875 5.46875 C-9.01796862 1.17422324 -5.69521823 -0.38481204 0 0 Z " fill="#000000" transform="translate(684.875,269.53125)"/>
<path d="M0 0 C2.87029869 1.79393668 4.49131638 2.98263276 6 6 C6.10044495 7.47100853 6.13939422 8.94643928 6.14717102 10.42085266 C6.15432632 11.35034729 6.16148163 12.27984192 6.16885376 13.23750305 C6.17288712 14.77183235 6.17288712 14.77183235 6.17700195 16.3371582 C6.18357315 17.41206512 6.19014435 18.48697205 6.19691467 19.5944519 C6.21667846 23.163229 6.22831662 26.73196397 6.23828125 30.30078125 C6.24235678 31.51732077 6.2464323 32.73386028 6.25063133 33.98726463 C6.27150435 40.42502041 6.28580124 46.86275479 6.29516602 53.30053711 C6.30523046 59.95890624 6.34064426 66.61689563 6.38033772 73.27515888 C6.40644855 78.38720839 6.41485291 83.49917774 6.41844749 88.61128807 C6.42332708 91.06612592 6.43497977 93.52095986 6.45348549 95.9757328 C6.4777604 99.40897892 6.4769329 102.84135305 6.4699707 106.2746582 C6.48278076 107.29147171 6.49559082 108.30828522 6.50878906 109.35591125 C6.47614819 113.76496227 6.43866441 116.28412345 4.09562683 120.10783386 C0.57141503 123.28988618 -2.12564075 123.38908605 -6.73828125 123.359375 C-10.32520929 122.78943134 -11.86838894 120.79773951 -14 118 C-15.16673182 115.66653635 -15.13061341 114.29938278 -15.14044189 111.69976807 C-15.14615204 110.79696106 -15.15186218 109.89415405 -15.15774536 108.96398926 C-15.15886322 107.97072632 -15.15998108 106.97746338 -15.16113281 105.95410156 C-15.16609772 104.91006165 -15.17106262 103.86602173 -15.17617798 102.79034424 C-15.19082648 99.32376454 -15.19760659 95.85723062 -15.203125 92.390625 C-15.20887486 89.98647052 -15.21463262 87.58231606 -15.22039795 85.17816162 C-15.23091602 80.1308165 -15.2367532 75.08348735 -15.24023438 70.03613281 C-15.24571645 63.56850232 -15.26973517 57.10108263 -15.29820633 50.63351822 C-15.31683182 45.66468694 -15.3220383 40.6959064 -15.32357025 35.72704315 C-15.32659821 33.34282022 -15.33463153 30.95859822 -15.34775543 28.57440948 C-15.36481134 25.23726901 -15.36293636 21.90064295 -15.35644531 18.56347656 C-15.3656601 17.57831055 -15.37487488 16.59314453 -15.3843689 15.578125 C-15.35232192 10.31813317 -15.04188055 6.50244703 -12 2 C-7.98141405 -0.6790573 -4.72358279 -0.69610694 0 0 Z " fill="#000000" transform="translate(1285,241)"/>
<path d="M0 0 C0.61875 -0.01289063 1.2375 -0.02578125 1.875 -0.0390625 C5.34257558 1.04455487 7.84676063 2.74273017 10 5.625 C10.89832014 9.23742928 10.80982556 12.77932188 10.76049805 16.48632812 C10.76940567 17.58118027 10.77831329 18.67603241 10.78749084 19.80406189 C10.80879584 23.42206462 10.78645241 27.03829068 10.76171875 30.65625 C10.76322087 33.17061546 10.76665014 35.68498045 10.77192688 38.19934082 C10.77626054 43.46853633 10.76002727 48.73727095 10.72729492 54.00634766 C10.68980144 60.09204079 10.69158006 66.17676651 10.7143361 72.26251078 C10.73530896 78.12470883 10.72790352 83.98654856 10.70801735 89.84873962 C10.70216473 92.33983215 10.70347399 94.83095208 10.71204185 97.32203674 C10.7200273 100.80320272 10.6958056 104.2826849 10.6628418 107.76367188 C10.67139191 108.79447372 10.67994202 109.82527557 10.68875122 110.88731384 C10.61104655 115.63852534 10.56038222 117.8879046 7.61482239 121.7623291 C4.78232229 123.7800629 3.43925817 124.30373841 0 124.25 C-1.2375 124.26933594 -1.2375 124.26933594 -2.5 124.2890625 C-6.30038598 123.27958497 -7.61574019 121.76112188 -10 118.625 C-10.7529993 115.00984812 -10.69338417 111.44586239 -10.6628418 107.76367188 C-10.67320969 106.66881973 -10.68357758 105.57396759 -10.69425964 104.44593811 C-10.72135614 100.82816041 -10.71166199 97.21159261 -10.69921875 93.59375 C-10.70512605 91.07938294 -10.71237209 88.56501871 -10.72090149 86.05065918 C-10.73278669 80.78153923 -10.72648945 75.51273383 -10.70678711 70.24365234 C-10.68441723 64.15787778 -10.70203121 58.07316364 -10.73983639 51.98748922 C-10.77485818 46.12530179 -10.77625886 40.26352353 -10.76395607 34.40126038 C-10.76246785 31.91014972 -10.77017692 29.41901614 -10.78720665 26.92796326 C-10.80714287 23.44663953 -10.78882096 19.96754844 -10.76049805 16.48632812 C-10.77421448 15.45552628 -10.78793091 14.42472443 -10.80206299 13.36268616 C-10.69115136 6.55015712 -10.69115136 6.55015712 -8.68827248 3.86915588 C-6.02696268 1.57559385 -3.56327844 -0.07423497 0 0 Z " fill="#000000" transform="translate(924,240.375)"/>
<path d="M0 0 C0.75925781 -0.04898438 1.51851562 -0.09796875 2.30078125 -0.1484375 C6.09017662 0.68262466 7.34712932 2.29711974 9.6875 5.375 C10.44099966 8.99002353 10.38088391 12.5541693 10.3503418 16.23632812 C10.36589363 17.87860634 10.36589363 17.87860634 10.38175964 19.55406189 C10.40885614 23.17183959 10.39916199 26.78840739 10.38671875 30.40625 C10.39262605 32.92061706 10.39987209 35.43498129 10.40840149 37.94934082 C10.42028669 43.21846077 10.41398945 48.48726617 10.39428711 53.75634766 C10.37191723 59.84212222 10.38953121 65.92683636 10.42733639 72.01251078 C10.46235818 77.87469821 10.46375886 83.73647647 10.45145607 89.59873962 C10.44996785 92.08985028 10.45767692 94.58098386 10.47470665 97.07203674 C10.49464287 100.55336047 10.47632096 104.03245156 10.44799805 107.51367188 C10.46171448 108.54447372 10.47543091 109.57527557 10.48956299 110.63731384 C10.37867674 117.44828448 10.37867674 117.44828448 8.37700844 120.13208008 C5.67883216 122.46042864 3.23533958 124.06352828 -0.375 123.9375 C-4.67366046 123.32340565 -6.32546996 122.4525461 -9.3125 119.375 C-10.49291166 117.01417667 -10.44578161 115.58745728 -10.45967102 112.95414734 C-10.46682632 112.02465271 -10.47398163 111.09515808 -10.48135376 110.13749695 C-10.48404266 109.11461075 -10.48673157 108.09172455 -10.48950195 107.0378418 C-10.49607315 105.96293488 -10.50264435 104.88802795 -10.50941467 103.7805481 C-10.52917846 100.211771 -10.54081662 96.64303603 -10.55078125 93.07421875 C-10.55485678 91.85767923 -10.5589323 90.64113972 -10.56313133 89.38773537 C-10.58400435 82.94997959 -10.59830124 76.51224521 -10.60766602 70.07446289 C-10.61773046 63.41609376 -10.65314426 56.75810437 -10.69283772 50.09984112 C-10.71894855 44.98779161 -10.72735291 39.87582226 -10.73094749 34.76371193 C-10.73582708 32.30887408 -10.74747977 29.85404014 -10.76598549 27.3992672 C-10.7902604 23.96602108 -10.7894329 20.53364695 -10.7824707 17.1003418 C-10.79528076 16.08352829 -10.80809082 15.06671478 -10.82128906 14.01908875 C-10.78864819 9.61003773 -10.75116441 7.09087655 -8.40812683 3.26716614 C-5.53839161 0.67604842 -3.79019837 0.16562211 0 0 Z " fill="#000000" transform="translate(884.3125,240.625)"/>
<path d="M0 0 C0.825 -0.01289063 1.65 -0.02578125 2.5 -0.0390625 C6.32800768 0.97775204 7.61816721 2.44228359 10 5.625 C10.69867649 9.43711549 10.58166549 13.18649582 10.48828125 17.05078125 C10.48120651 18.15350876 10.47413177 19.25623627 10.46684265 20.39237976 C10.43889489 23.90811517 10.37615165 27.42224743 10.3125 30.9375 C10.28741781 33.32354468 10.26460451 35.70961437 10.24414062 38.09570312 C10.18906692 43.93934737 10.10543545 49.78205915 10 55.625 C10.64026123 55.60405273 11.28052246 55.58310547 11.94018555 55.56152344 C14.85579575 55.47810716 17.77115452 55.42626031 20.6875 55.375 C22.19860352 55.32472656 22.19860352 55.32472656 23.74023438 55.2734375 C31.23001032 55.17456257 31.23001032 55.17456257 35.16552734 57.47680664 C37.45366823 60.1562519 37.67348765 61.56654032 37.625 65.0625 C37.63789063 65.98933594 37.65078125 66.91617188 37.6640625 67.87109375 C36.69757384 71.87917906 35.31219479 73.14507408 32 75.625 C28.25147475 76.36426747 24.56040716 76.30191928 20.75 76.25390625 C19.65913086 76.25631821 18.56826172 76.25873016 17.44433594 76.26121521 C15.14123901 76.26023705 12.83811848 76.24685114 10.53515625 76.22192383 C7.0122074 76.18761887 3.49176748 76.20126748 -0.03125 76.22070312 C-2.270844 76.21380452 -4.51043153 76.20413201 -6.75 76.19140625 C-7.80219727 76.19636612 -8.85439453 76.20132599 -9.93847656 76.20643616 C-17.23714456 76.08903481 -17.23714456 76.08903481 -21.140625 73.71459961 C-24.27793176 70.18883693 -24.41354736 67.48516954 -24.33203125 62.890625 C-24 60.625 -24 60.625 -22.0625 57.5625 C-18.83287041 55.51926496 -17.95259818 55.40149089 -14.30859375 55.50390625 C-13.50091553 55.52138916 -12.6932373 55.53887207 -11.86108398 55.55688477 C-10.93984741 55.59060181 -10.93984741 55.59060181 -10 55.625 C-10.01110306 55.00969925 -10.02220612 54.3943985 -10.03364563 53.76045227 C-10.14431497 47.35290044 -10.2196988 40.94562032 -10.2746582 34.53735352 C-10.29979315 32.14629081 -10.33390633 29.75530486 -10.37719727 27.36450195 C-10.43789061 23.92640236 -10.46622072 20.48931904 -10.48828125 17.05078125 C-10.51408768 15.98289871 -10.5398941 14.91501617 -10.56648254 13.81477356 C-10.56928632 6.38570701 -10.56928632 6.38570701 -7.62573242 2.45239258 C-4.78990053 0.47878015 -3.4190232 -0.05342224 0 0 Z " fill="#000000" transform="translate(401,200.375)"/>
<path d="M0 0 C12.55621024 10.07985708 12.55621024 10.07985708 13.375 17.3125 C13.00243958 20.97601079 12.39704328 23.18012168 9.8046875 25.875 C6.58024703 27.88504081 3.62847466 27.97900875 -0.10546875 27.7890625 C-4.66565322 26.54593529 -7.18921394 23.63494272 -10.4453125 20.33203125 C-18.53139492 12.95069913 -28.5738073 11.53190331 -39.08984375 11.7109375 C-45.51946252 12.18625397 -51.08016027 14.11903742 -56.4921875 17.60546875 C-60.55394699 19.86411071 -64.4816836 19.81611626 -69 19 C-71.82424288 16.80977082 -73.41508603 15.16982793 -75 12 C-75.36578152 8.12271592 -75.52763757 5.81892417 -73.38671875 2.49609375 C-55.67720439 -16.02498591 -19.47164167 -13.7282078 0 0 Z " fill="#000000" transform="translate(764,251)"/>
<path d="M0 0 C0.825 -0.01289063 1.65 -0.02578125 2.5 -0.0390625 C6.29098944 0.96791907 7.6174376 2.50348452 10 5.625 C10.73029694 9.16602653 10.67389889 12.64868034 10.63671875 16.25390625 C10.64709671 17.28055893 10.65747467 18.30721161 10.66816711 19.36497498 C10.6978394 22.63949141 10.69447394 25.91287344 10.6875 29.1875 C10.69639226 32.46537859 10.71234155 35.74295374 10.7389679 39.02073669 C10.75388367 41.05849623 10.75768585 43.09637411 10.74919128 45.13417053 C10.75292252 46.05870529 10.75665375 46.98324005 10.76049805 47.93579102 C10.75874069 48.7467775 10.75698334 49.55776398 10.75517273 50.39332581 C11.02919494 52.89112068 11.69437743 54.48951844 13 56.625 C15.52497693 58.37306095 18.04354225 58.83851506 21 59.4375 C23.99769432 60.17014544 25.05439948 60.67123955 27.5 62.75 C29.45879797 66.50436277 29.85564732 69.47259388 29 73.625 C27.20636089 76.4350346 25.98119065 78.13440468 23 79.625 C13.36317094 80.39594633 6.29528979 79.54715801 -1.25 73.375 C-6.38390364 68.60420153 -9.70853153 63.28291814 -10.15390015 56.1655426 C-10.16676056 55.24796677 -10.17962097 54.33039093 -10.19287109 53.38500977 C-10.20893402 52.34035049 -10.22499695 51.29569122 -10.24154663 50.21937561 C-10.28610958 45.4642108 -10.32702718 40.70918206 -10.35009766 35.95385742 C-10.366688 33.4446487 -10.39401791 30.93548781 -10.43212891 28.42651367 C-10.4868124 24.80622888 -10.50875593 21.18704802 -10.5234375 17.56640625 C-10.54610687 16.44545059 -10.56877625 15.32449493 -10.59213257 14.16957092 C-10.57098586 6.39501555 -10.57098586 6.39501555 -7.62353516 2.42016602 C-4.79150826 0.48233857 -3.39808016 -0.053095 0 0 Z " fill="#000000" transform="translate(401,282.375)"/>
<path d="M0 0 C2.93087207 2.25451698 3.82814288 3.48442865 5 7 C5.10945059 9.12992326 5.15898863 11.26309445 5.17700195 13.39575195 C5.18357315 14.0400415 5.19014435 14.68433105 5.19691467 15.34814453 C5.21660845 17.47819136 5.22830146 19.60816781 5.23828125 21.73828125 C5.24235678 22.46722281 5.2464323 23.19616436 5.25063133 23.94719505 C5.27147543 27.80553273 5.28578425 31.66383503 5.29516602 35.5222168 C5.30622677 39.50023128 5.34062682 43.47768584 5.38033772 47.45550251 C5.4065252 50.52079789 5.4148597 53.58596025 5.41844749 56.65135765 C5.42330804 58.11733977 5.43490699 59.58331616 5.45348549 61.04918861 C5.47792439 63.10526116 5.47690453 65.15989011 5.4699707 67.21606445 C5.47877007 68.96787773 5.47877007 68.96787773 5.48774719 70.75508118 C4.89314196 74.71091267 3.46940429 76.89089056 1 80 C-1.39543821 81.1977191 -3.13969954 81.3052625 -5.8125 81.4375 C-6.66457031 81.49808594 -7.51664063 81.55867188 -8.39453125 81.62109375 C-11.45225 80.89219228 -12.99070533 79.72591772 -14.93406677 77.26698303 C-17.45815792 71.8988496 -16.70943718 65.36588736 -16.6640625 59.53125 C-16.66743421 58.00719822 -16.67228978 56.48314906 -16.67855835 54.95910645 C-16.68591315 51.77146702 -16.67527037 48.58453013 -16.65185547 45.39697266 C-16.62336709 41.32120084 -16.63977875 37.24707531 -16.66971779 33.17136383 C-16.68782935 30.02618111 -16.6820154 26.8813855 -16.66907883 23.7361908 C-16.6657554 22.233961 -16.66979441 20.73169549 -16.68147659 19.22950745 C-16.76151659 6.04564154 -16.76151659 6.04564154 -13.64599609 2.09570312 C-9.21958297 -1.41014023 -5.32496724 -1.40639256 0 0 Z " fill="#000000" transform="translate(642,241)"/>
<path d="M0 0 C15.18 0 30.36 0 46 0 C46 10.60099255 45.31440235 17.0673674 38.25390625 24.94921875 C35.58309651 27.31071422 32.73462082 29.17351715 29.75 31.125 C27.1545213 32.89464457 25.6825836 34.38264773 24 37 C20.15630634 35.43405073 17.90538994 32.90538994 15 30 C14.01 29.360625 13.02 28.72125 12 28.0625 C5.57098195 23.64255009 2.53703958 18.23526102 0 11 C0 7.37 0 3.74 0 0 Z " fill="#5AB57B" transform="translate(1169,298)"/>
<path d="M0 0 C6.51459854 -0.25056148 6.51459854 -0.25056148 8.9296875 0.99609375 C11.41238878 2.19996965 13.12884319 2.23455253 15.875 2.1875 C16.75285156 2.1771875 17.63070313 2.166875 18.53515625 2.15625 C21.16752843 2.06209699 21.16752843 2.06209699 24.3125 1.1875 C27 1 27 1 29.75 3.1875 C33.59529457 7.99411821 34.44156963 11.29350009 34.32421875 17.38671875 C33.83174043 21.35621268 32.470558 24.8353722 30 28 C29.01 28.33 28.02 28.66 27 29 C27 29.66 27 30.32 27 31 C19.26562919 33.94642697 12.87469754 35.33231512 4.9921875 32.03515625 C0.86551713 29.89090596 -2.81089722 27.40869537 -4.9140625 23.1484375 C-6.82808743 16.74283405 -5.67045604 10.33916651 -4 4 C-3.34 4 -2.68 4 -2 4 C-1.34 2.68 -0.68 1.36 0 0 Z " fill="#5AB57B" transform="translate(1276,411)"/>
<path d="M0 0 C5.10654361 -0.17310317 8.26825048 0.05876943 13 2 C17.65926298 2.34272137 17.65926298 2.34272137 22 1 C24.8125 0.625 24.8125 0.625 28 1 C31.91702853 4.2206679 33.74489359 6.54004532 34.2734375 11.63671875 C34.51021588 18.74917691 33.92424 23.64522535 29 29 C22.97241608 33.5574415 16.31315258 33.5809029 9 33 C4.3394804 31.81968219 0.3884451 29.3884451 -3 26 C-6.37301925 19.41458146 -5.59044683 11.03613679 -4 4 C-3.34 4 -2.68 4 -2 4 C-1.34 2.68 -0.68 1.36 0 0 Z " fill="#5AB57B" transform="translate(1097,411)"/>
<path d="M0 0 C3.41225615 0.54162796 4.98989754 1.15119877 7.9375 2.625 C12.23041887 2.83964594 15.92426695 2.638353 20.125 1.8125 C23.9375 1.625 23.9375 1.625 26.64453125 3.58203125 C29.66493209 7.59036558 29.622684 10.25129387 29.4375 15.125 C29.44136719 16.24455078 29.44136719 16.24455078 29.4453125 17.38671875 C29.36551517 21.89526814 28.97741652 25.08673651 25.9375 28.625 C20.69985339 32.41531675 16.75457401 33.26109758 10.375 33.125 C9.64603516 33.14046875 8.91707031 33.1559375 8.16601562 33.171875 C2.98883452 33.13459557 0.05818522 31.97690067 -4.0625 28.625 C-8.95940045 23.1987049 -9.48506954 18.85247348 -9.3984375 11.72265625 C-8.75669725 5.80521421 -6.6182252 0.22266926 0 0 Z " fill="#5AB57B" transform="translate(1193.0625,422.375)"/>
<path d="M0 0 C0.69867187 -0.02900391 1.39734375 -0.05800781 2.1171875 -0.08789062 C5.70482887 -0.13189 7.83139017 0.21250002 10.9375 2.0546875 C13.73852744 5.12096375 13.90012088 7.10874309 14.14453125 11.125 C13.87218246 15.2470357 11.80969618 17.50280382 9 20.3125 C6.34950496 20.82029141 3.73123623 21.24563346 1.0625 21.625 C-4.36456853 22.46549284 -8.99289865 23.48507345 -13.9375 26 C-18.99919308 28.53469867 -23.39034929 29.52321598 -29 28.3125 C-32.125 26.4375 -32.125 26.4375 -34 23.3125 C-34.8849828 19.74848765 -34.93571392 16.87155472 -34 13.3125 C-28.99331777 5.75881373 -18.97182667 2.84198905 -10.60546875 0.69921875 C-7.0712824 0.17465436 -3.56547369 0.04933774 0 0 Z " fill="#000000" transform="translate(972,240.6875)"/>
<path d="M0 0 C3 1 3 1 5.0625 3.1875 C7.42323201 5.67699921 9.96234537 7.23996432 12.9375 8.9375 C17.43210527 11.57782866 20.82601826 13.82370824 24 18 C24.47637078 20.85822468 24.30234017 23.07737833 24 26 C20.0227701 27.3257433 16.20838374 27.14268506 12.0625 27.1328125 C11.18601807 27.13376923 10.30953613 27.13472595 9.40649414 27.13571167 C7.55387297 27.13639199 5.7012494 27.134548 3.84863281 27.13037109 C1.0110133 27.12502077 -1.82644792 27.13032108 -4.6640625 27.13671875 C-6.46354202 27.13605794 -8.26302143 27.13477673 -10.0625 27.1328125 C-10.91255615 27.13483673 -11.7626123 27.13686096 -12.63842773 27.13894653 C-16.00673216 27.12552238 -18.7824649 27.0725117 -22 26 C-22.5857672 22.77828042 -22.82371676 21.10438252 -22 18 C-17.17567721 12.01984988 -10.7252063 7.91142493 -4.03125 4.2890625 C-1.71503332 3.01162782 -1.71503332 3.01162782 0 0 Z " fill="#5AB57B" transform="translate(1191,270)"/>
<path d="M0 0 C5.862071 4.85714454 5.862071 4.85714454 6.64453125 9.55859375 C6.93053599 14.88626353 6.87382946 18.78569918 3.375 23 C0.23081887 26.19076159 -2.71172569 26.98017753 -7.125 27.125 C-11.73652889 27.07251105 -14.26100983 25.85663444 -17.8125 22.8125 C-21.54981991 18.73460897 -21.42231765 15.15032425 -21.3046875 9.8046875 C-20.56161442 5.28727498 -18.43461294 2.5356944 -14.8125 -0.1875 C-9.85912639 -1.83862454 -4.8485638 -2.04717138 0 0 Z " fill="#000000" transform="translate(643.8125,210.1875)"/>
<path d="M0 0 C2.75569447 2.18159145 4.43588747 3.87177494 6 7 C6.15144814 9.95032632 6.23142405 12.86124618 6.25 15.8125 C6.270625 16.62009766 6.29125 17.42769531 6.3125 18.25976562 C6.3435595 23.00022182 6.11738511 26.17610472 3 30 C-1.01858595 32.6790573 -4.27641721 32.69610694 -9 32 C-11.87029869 30.20606332 -13.49131638 29.01736724 -15 26 C-15.29125335 22.73595381 -15.27787486 19.46303826 -15.3125 16.1875 C-15.34150391 15.28451172 -15.37050781 14.38152344 -15.40039062 13.45117188 C-15.44177469 9.11857818 -15.42240548 6.6854291 -13.10546875 2.92578125 C-9.17210398 -0.67189747 -5.15512227 -0.81912133 0 0 Z " fill="#000000" transform="translate(641,332)"/>
<path d="M0 0 C3.65499197 0.80165251 6.51214373 2.79646312 9.1015625 5.4609375 C9.99370902 8.13737707 10.23696461 9.71478128 10.2265625 12.4609375 C10.23042969 13.481875 10.23042969 13.481875 10.234375 14.5234375 C10.1015625 16.4609375 10.1015625 16.4609375 9.1015625 19.4609375 C8.4415625 19.4609375 7.7815625 19.4609375 7.1015625 19.4609375 C6.8746875 20.0384375 6.6478125 20.6159375 6.4140625 21.2109375 C4.67129764 24.19853441 3.07487208 25.67695175 0.1015625 27.4609375 C-3.5234375 27.5859375 -3.5234375 27.5859375 -6.8984375 26.4609375 C-9.9087653 21.87909286 -10.39055909 17.68885375 -10.3359375 12.3359375 C-10.35591797 11.63339844 -10.37589844 10.93085938 -10.39648438 10.20703125 C-10.39324194 6.7765306 -10.14894786 4.80497902 -8.109375 2.00390625 C-5.42662 0.13166557 -3.25134791 -0.15830533 0 0 Z " fill="#5AB57B" transform="translate(1300.8984375,378.5390625)"/>
<path d="M0 0 C3.1714618 0.74751959 4.33154263 1.9192492 6.25390625 4.53125 C7.15986792 10.05262272 6.81403102 15.60582111 5.25390625 20.96875 C2.42693111 24.5908119 -0.62838007 27.43613149 -4.74609375 29.53125 C-7.55859375 29.28125 -7.55859375 29.28125 -9.74609375 27.53125 C-13.3455317 22.566508 -13.44756536 17.43296449 -12.74609375 11.53125 C-12.01101482 8.89596705 -11.0673172 6.97796009 -9.74609375 4.53125 C-9.37484375 3.726875 -9.00359375 2.9225 -8.62109375 2.09375 C-5.88847935 -0.18342867 -3.46639899 0.04692249 0 0 Z " fill="#5AB57B" transform="translate(1323.74609375,397.46875)"/>
<path d="M0 0 C1.21236328 0.02707031 1.21236328 0.02707031 2.44921875 0.0546875 C3.37154297 0.08949219 3.37154297 0.08949219 4.3125 0.125 C4.6425 1.115 4.9725 2.105 5.3125 3.125 C6.3025 3.455 7.2925 3.785 8.3125 4.125 C8.86603075 16.79470387 8.86603075 16.79470387 5.3125 22.125 C4.6525 22.125 3.9925 22.125 3.3125 22.125 C3.10625 22.723125 2.9 23.32125 2.6875 23.9375 C0.80323918 26.93518767 -1.49882084 27.73861776 -4.6875 29.125 C-9.5625 25.375 -9.5625 25.375 -10.6875 23.125 C-11.66650887 8.60931076 -11.66650887 8.60931076 -7.6875 2.125 C-4.48369983 -0.01086678 -3.66810033 -0.10632175 0 0 Z " fill="#5AB57B" transform="translate(1122.6875,376.875)"/>
<path d="M0 0 C2.46372628 1.75980449 2.82949322 3.37439977 3.75 6.25 C5.05535856 19.22769269 5.05535856 19.22769269 1.8125 24.0625 C-1.18277311 27.23930481 -1.18277311 27.23930481 -4 27.6875 C-7.25 27.25 -7.25 27.25 -10.0625 24.5625 C-13.45645431 19.42308347 -13.46881814 14.7160924 -13.625 8.625 C-13.67398437 7.31273437 -13.72296875 6.00046875 -13.7734375 4.6484375 C-13.25 1.25 -13.25 1.25 -10.91796875 -0.72265625 C-6.86084688 -2.28491548 -4.0049429 -1.33498097 0 0 Z " fill="#5AB57B" transform="translate(1203.25,393.75)"/>
<path d="M0 0 C4.01290747 1.41632028 5.66596006 3.12699043 8.04296875 6.6015625 C10.20027834 11.35795157 10.15400702 16.0526549 9.1875 21.125 C7.0625 24.4375 7.0625 24.4375 4.1875 26.125 C1.25 26.5 1.25 26.5 -1.8125 25.125 C-5.94965284 20.93130293 -8.18933932 16.74180708 -8.3125 10.8125 C-8.1817396 7.42907459 -7.62939066 5.00378959 -5.8125 2.125 C-2.8125 0.125 -2.8125 0.125 0 0 Z " fill="#5AB57B" transform="translate(1097.8125,379.875)"/>
<path d="M0 0 C3.01156521 1.80557643 4.58815071 3.79392556 6 7 C6.49841854 12.05687145 6.3517629 16.93852269 6 22 C5.34 22 4.68 22 4 22 C4 22.66 4 23.32 4 24 C0.8125 24.8125 0.8125 24.8125 -3 25 C-6.30875541 22.42652357 -8.43306647 19.8651027 -10 16 C-10.265625 13.34375 -10.265625 13.34375 -10.25 10.5 C-10.25515625 9.5615625 -10.2603125 8.623125 -10.265625 7.65625 C-9.99254166 4.92541656 -9.48065378 3.29397065 -8 1 C-5.01788442 -0.49105779 -3.31465295 -0.50994661 0 0 Z " fill="#5AB57B" transform="translate(1279,381)"/>
<path d="M0 0 C3.29969432 0.16952558 3.88641228 0.40031395 6.4375 2.75 C9.46242096 7.98544012 11.00797534 12.42289434 10.0625 18.5625 C8.5 22.0625 8.5 22.0625 6.0625 24.5625 C2.5625 25.25 2.5625 25.25 -0.9375 24.5625 C-4.32313243 21.26837115 -6.70279099 17.63525486 -7.23828125 12.90625 C-7.24214844 11.9678125 -7.24601562 11.029375 -7.25 10.0625 C-7.26675781 9.1240625 -7.28351563 8.185625 -7.30078125 7.21875 C-6.60790092 2.15252825 -5.0124096 0.71605851 0 0 Z " fill="#5AB57B" transform="translate(1178.9375,403.4375)"/>
<path d="M0 0 C1.79309961 1.79309961 1.29807043 4.32375978 1.375 6.75 C1.34748082 12.5427884 1.34748082 12.5427884 -1.375 16.125 C-2.24125 16.74375 -3.1075 17.3625 -4 18 C-4.66 18.66 -5.32 19.32 -6 20 C-12.46153846 19.53846154 -12.46153846 19.53846154 -15 17 C-15.80441369 12.40735905 -15.45307932 8.19110534 -13.25 4.0625 C-9.17754276 -1.4805668 -6.65536442 -1.38130205 0 0 Z " fill="#5AB57B" transform="translate(1145,394)"/>
<path d="M0 0 C2.625 1.0625 2.625 1.0625 4.625 3.0625 C4.96130783 8.10711748 5.01449223 12.49129747 2.625 17.0625 C-0.45595032 19.69083648 -3.10572027 21.11891243 -7.1875 20.9375 C-9.375 20.0625 -9.375 20.0625 -11.375 18.0625 C-12.13933306 14.28468988 -12.14160837 10.83856422 -11.375 7.0625 C-8.42556224 2.73325101 -5.31299338 0.09838877 0 0 Z " fill="#5AB57B" transform="translate(1225.375,400.9375)"/>
<path d="M0 0 C3.80205576 1.2414876 4.95702668 2.64683879 7.0625 6 C8.93837999 10.53337665 8.57236662 16.47040015 7.0625 21 C4.375 21.8125 4.375 21.8125 1.0625 22 C-2.46769693 19.11165706 -5.69505732 16.09067457 -6.23828125 11.40625 C-6.24214844 10.4471875 -6.24601562 9.488125 -6.25 8.5 C-6.26675781 7.5409375 -6.28351563 6.581875 -6.30078125 5.59375 C-5.9375 3 -5.9375 3 -4.6015625 1.15625 C-2.9375 0 -2.9375 0 0 0 Z " fill="#5AB57B" transform="translate(1259.9375,398)"/>
<path d="M0 0 C1.134375 0.020625 2.26875 0.04125 3.4375 0.0625 C3.7675 1.0525 4.0975 2.0425 4.4375 3.0625 C5.0975 3.0625 5.7575 3.0625 6.4375 3.0625 C8.63349193 8.27798084 9.12180858 13.467271 8.4375 19.0625 C6.4375 21.0625 6.4375 21.0625 3.5625 21.4375 C-0.22446193 20.98306457 -1.23176305 19.99750208 -3.5625 17.0625 C-5.05591703 14.07566593 -4.69425178 11.31850226 -4.6875 8 C-4.69007812 6.73027344 -4.69265625 5.46054687 -4.6953125 4.15234375 C-4.50598683 -0.25226232 -4.50200686 0.07898258 0 0 Z " fill="#5AB57B" transform="translate(1080.5625,397.9375)"/>
<path d="M0 0 C2 2 2 2 2.15234375 4.0234375 C1.5681925 10.41723846 1.5681925 10.41723846 -1.4375 13.5 C-5.32137994 15.7734907 -7.46136039 16.1931336 -12 16 C-13 15 -13 15 -13.375 11.25 C-13.34286725 7.66398486 -13.08349819 7.10380856 -10.6875 4.125 C-4.84245661 -0.49666222 -4.84245661 -0.49666222 0 0 Z " fill="#5AB57B" transform="translate(1236,424)"/>
</svg>
